<svg xmlns="http://www.w3.org/2000/svg" viewBox="0 0 160 80" width="160" height="80">
  <path d="M30 10 C30 10 20 10 20 22 L20 52 C20 64 30 70 50 72 C70 70 80 64 80 52 L80 22 C80 10 70 10 70 10 Z" fill="#351C15"/>
  <path d="M30 14 C30 14 24 14 24 24 L24 51 C24 61 32 66 50 68 C68 66 76 61 76 51 L76 24 C76 14 70 14 70 14 Z" fill="#FFB500"/>
  <text x="50" y="52" font-family="Arial Black, sans-serif" font-weight="900" font-size="22" fill="#351C15" text-anchor="middle">UPS</text>
  <text x="110" y="52" font-family="Arial Black, sans-serif" font-weight="900" font-size="32" fill="#351C15" text-anchor="middle">UPS</text>
</svg>
